Coordinates
version=1
nRows=4
nColumns=107
inDegrees=yes

Units are S.I. units (second, meters, Newtons, ...)
If the header above contains a line with 'inDegrees', this indicates whether rotational values are in degrees (yes) or radians (no).

endheader
time	sternoclavicular_r2	sternoclavicular_r3	unrotscap_r3	unrotscap_r2	acromioclavicular_r2	acromioclavicular_r3	acromioclavicular_r1	unrothum_r1	unrothum_r3	unrothum_r2	elv_angle	shoulder_elv	shoulder1_r2	shoulder_rot	elbow_flexion	pro_sup	deviation	flexion	proximal_distal_r1	proximal_distal_r3	cmc_flexion	cmc_abduction	mp_flexion	ip_flexion	mcp2_flexion	mcp2_abduction	pm2_flexion	md2_flexion	mcp3_flexion	mcp3_abduction	pm3_flexion	md3_flexion	mcp4_flexion	mcp4_abduction	pm4_flexion	md4_flexion	mcp5_flexion	mcp5_abduction	pm5_flexion	md5_flexion	bicpt_tx	bicpt_ty	bicpt_tz	bicpt2_tx	bicpt2_ty	bicpt2_tz	ptpt_tx	ptpt_ty	ptpt_tz	FCUpt_tx	FCUpt_ty	FCUpt_tz	EDCpt_tx	EDCpt_ty	EDCpt_tz	APLpt_tx	APLpt_ty	APLpt_tz	FPLpt_tx	FPLpt_ty	FPLpt_tz	FPLpt2_tx	FPLpt2_ty	FPLpt2_tz	PEC1pt2_tx	PEC1pt2_ty	PEC1pt2_tz	PEC1pt3_tx	PEC1pt3_ty	PEC1pt3_tz	PEC2pt2_tx	PEC2pt2_ty	PEC2pt2_tz	PEC2pt3_tx	PEC2pt3_ty	PEC2pt3_tz	PEC3pt2_tx	PEC3pt2_ty	PEC3pt2_tz	PEC3pt3_tx	PEC3pt3_ty	PEC3pt3_tz	DELT2pt2a_tx	DELT2pt2a_ty	DELT2pt2a_tz	DELT2pt2_tx	DELT2pt2_ty	DELT2pt2_tz	LAT1pt2_tx	LAT1pt2_ty	LAT1pt2_tz	LAT1pt3_tx	LAT1pt3_ty	LAT1pt3_tz	LAT2pt2_tx	LAT2pt2_ty	LAT2pt2_tz	LAT2pt3_tx	LAT2pt3_ty	LAT2pt3_tz	LAT3pt2_tx	LAT3pt2_ty	LAT3pt2_tz	LAT3pt3_tx	LAT3pt3_ty	LAT3pt3_tz
      1.30000000	     -0.32325399	      0.13691513	     -0.13691513	      0.32325399	     -0.06545236	      0.52896293	      0.23776520	     -0.23776520	     -0.52896293	      0.06545236	     98.42631724	     76.53325545	     -1.71786331	    -21.69537185	     30.00019038	     45.92260966	      0.20088575	     -0.61389469	      0.23959980	     -0.30694734	     16.76700707	    -11.00852381	    -28.50566356	     -5.18620186	     22.05759103	      9.06830575	     42.74123947	     -5.62690282	     32.41843562	      3.30161045	     22.30090370	     18.80786766	     31.91317527	     -6.88790858	     26.34464843	     25.91416004	     26.72094998	    -13.43302427	     31.01057826	      5.39458693	      0.00089231	     -0.03103848	     -0.00485385	      0.01654535	     -0.01834970	     -0.00681320	      0.00415684	     -0.06709408	     -0.00374931	      0.00838193	     -0.18336688	     -0.00041526	     -0.00551070	      0.00162658	      0.00009440	      0.00031249	      0.00012500	      0.00062499	      0.00039999	      0.00119998	      0.00067499	      0.00001972	     -0.00026300	     -0.00031559	      0.00250859	      0.00880133	      0.00612267	     -0.00820607	      0.01981363	     -0.01879318	      0.00250859	      0.00880133	      0.00612267	      0.00055274	      0.01836800	     -0.00965170	      0.00396178	      0.00489431	      0.01600138	      0.00000000	      0.00783392	      0.00000000	     -0.00718563	     -0.03320696	     -0.00645973	      0.01473535	     -0.00048457	     -0.00390913	     -0.00089289	      0.01496652	     -0.00612267	      0.00246607	      0.02159940	     -0.01785777	     -0.00599511	      0.01296815	     -0.00548489	     -0.01250044	      0.02738192	     -0.03065585	     -0.02347022	      0.01449881	     -0.00735570	     -0.01556178	      0.03163377	     -0.03830918
      1.33333333	     -0.32321659	      0.13689929	     -0.13689929	      0.32321659	     -0.06544478	      0.52890172	      0.23773768	     -0.23773768	     -0.52890172	      0.06544478	     98.42454918	     76.52439985	     -1.71783245	    -21.69305194	     29.99973186	     45.92332262	      0.20087028	     -0.61388058	      0.23958341	     -0.30694029	     16.76649180	    -11.00872345	    -28.50584551	     -5.18612428	     22.06004684	      9.06828973	     42.74197682	     -5.62650181	     32.42104934	      3.30179703	     22.30157723	     18.80804045	     31.91360364	     -6.88794121	     26.34526970	     25.91425981	     26.72062279	    -13.43289299	     31.01063858	      5.39460329	      0.00089230	     -0.03103843	     -0.00485384	      0.01654534	     -0.01834957	     -0.00681311	      0.00415678	     -0.06709411	     -0.00374937	      0.00838200	     -0.18336686	     -0.00041526	     -0.00551079	      0.00162661	      0.00009439	      0.00031249	      0.00012500	      0.00062498	      0.00039999	      0.00119997	      0.00067498	      0.00001972	     -0.00026299	     -0.00031559	      0.00250830	      0.00880031	      0.00612196	     -0.00820512	      0.01981133	     -0.01879101	      0.00250830	      0.00880031	      0.00612196	      0.00055268	      0.01836587	     -0.00965059	      0.00396145	      0.00489374	      0.01600057	      0.00000000	      0.00783209	      0.00000000	     -0.00718480	     -0.03320311	     -0.00645821	      0.01473407	     -0.00048450	     -0.00390826	     -0.00089279	      0.01496478	     -0.00612196	      0.00246579	      0.02159690	     -0.01785571	     -0.00599442	      0.01296665	     -0.00548425	     -0.01249900	      0.02737875	     -0.03065230	     -0.02346750	      0.01449713	     -0.00735485	     -0.01555997	      0.03163011	     -0.03830475
      1.36666667	     -0.32249555	      0.13659389	     -0.13659389	      0.32249555	     -0.06529879	      0.52772184	      0.23720734	     -0.23720734	     -0.52772184	      0.06529879	     98.56306728	     76.35368793	     -1.72025004	    -22.50495817	     30.06736232	     46.49621240	      0.19600712	     -0.62076501	      0.23456329	     -0.31038250	     16.38691075	    -10.65111237	    -28.70233758	     -4.47450726	     22.92637135	      9.09633971	     43.21112910	     -5.63401920	     33.09476381	      3.37582441	     22.84445223	     18.91035357	     32.09795484	     -6.98386714	     27.12089662	     25.77542320	     26.80487338	    -13.45379006	     31.12605857	      5.39219196	      0.00089453	     -0.03104618	     -0.00485509	      0.01653828	     -0.01836795	     -0.00674697	      0.00411445	     -0.06712148	     -0.00379552	      0.00844078	     -0.18335394	     -0.00041665	     -0.00557953	      0.00165101	      0.00008835	      0.00031243	      0.00012497	      0.00062485	      0.00039991	      0.00119972	      0.00067484	      0.00002061	     -0.00026049	     -0.00031259	      0.00250271	      0.00878068	      0.00610830	     -0.00818682	      0.01976714	     -0.01874909	      0.00250271	      0.00878068	      0.00610830	      0.00055144	      0.01832490	     -0.00962906	      0.00395500	      0.00488283	      0.01598488	      0.00000000	      0.00779694	      0.00000000	     -0.00716877	     -0.03312904	     -0.00642903	      0.01517979	     -0.00051009	     -0.00421637	     -0.00089079	      0.01493140	     -0.00610830	      0.00246029	      0.02154873	     -0.01781588	     -0.00598104	      0.01293772	     -0.00547202	     -0.01247111	      0.02731768	     -0.03058392	     -0.02341515	      0.01446479	     -0.00733844	     -0.01552526	      0.03155955	     -0.03821929
      1.40000000	     -0.32356545	      0.13704705	     -0.13704705	      0.32356545	     -0.06551542	      0.52947259	      0.23799429	     -0.23799429	     -0.52947259	      0.06551542	     98.33632675	     76.60699599	     -1.71629268	    -21.31775828	     30.03785548	     45.67097746	      0.20864956	     -0.60638524	      0.24753360	     -0.30319262	     16.29234434	    -10.60584503	    -28.82439910	     -5.06185888	     23.38460021	      9.12600038	     43.35860595	     -5.85070572	     33.51878207	      3.42395818	     23.07637711	     19.00464892	     32.71503469	     -6.96301468	     26.80311153	     25.85303082	     27.03434752	    -13.44742397	     31.24090964	      5.39550972	      0.00089356	     -0.03104280	     -0.00485454	      0.01654822	     -0.01835993	     -0.00684210	      0.00417543	     -0.06708205	     -0.00372904	      0.00835615	     -0.18337253	     -0.00041457	     -0.00548050	      0.00161589	      0.00009699	      0.00031248	      0.00012499	      0.00062497	      0.00039998	      0.00119994	      0.00067497	      0.00002083	     -0.00025984	     -0.00031181	      0.00251101	      0.00880981	      0.00612856	     -0.00821398	      0.01983272	     -0.01881129	      0.00251101	      0.00880981	      0.00612856	      0.00055327	      0.01838569	     -0.00966100	      0.00396456	      0.00489902	      0.01600813	      0.00000000	      0.00784913	      0.00000000	     -0.00719255	     -0.03323895	     -0.00647235	      0.01452506	     -0.00047275	     -0.00376921	     -0.00089375	      0.01498094	     -0.00612856	      0.00246845	      0.02162021	     -0.01787498	     -0.00600089	      0.01298064	     -0.00549017	     -0.01251249	      0.02740830	     -0.03068538	     -0.02349283	      0.01451278	     -0.00736279	     -0.01557677	      0.03166425	     -0.03834609
